<?xml version="1.0" encoding="utf-8"?>
<!-- Generator: Adobe Illustrator 16.0.0, SVG Export Plug-In . SVG Version: 6.00 Build 0)  -->
<!DOCTYPE svg PUBLIC "-//W3C//DTD SVG 1.1//EN" "http://www.w3.org/Graphics/SVG/1.1/DTD/svg11.dtd" [
	<!ENTITY ns_flows "http://ns.adobe.com/Flows/1.0/">
	<!ENTITY ns_extend "http://ns.adobe.com/Extensibility/1.0/">
	<!ENTITY ns_ai "http://ns.adobe.com/AdobeIllustrator/10.0/">
	<!ENTITY ns_graphs "http://ns.adobe.com/Graphs/1.0/">
]>
<svg version="1.1" id="Layer_3" xmlns:x="&ns_extend;" xmlns:i="&ns_ai;" xmlns:graph="&ns_graphs;"
	 xmlns="http://www.w3.org/2000/svg" xmlns:xlink="http://www.w3.org/1999/xlink" xmlns:a="http://ns.adobe.com/AdobeSVGViewerExtensions/3.0/"
	 x="0px" y="0px" width="256px" height="256px" viewBox="0 0 256 256" enable-background="new 0 0 256 256" xml:space="preserve">
<g>
	<path d="M177.533,28.64V8.492c0-4.642-3.764-8.406-8.404-8.406c-4.644,0-8.407,3.764-8.407,8.406V28.64H93.275V8.492
		c0-4.642-3.764-8.406-8.406-8.406s-8.405,3.764-8.405,8.406V28.64H14.278v227.446h227.446V28.64H177.533z M76.464,45.45v16.655
		c0,4.642,3.763,8.405,8.405,8.405s8.406-3.763,8.406-8.405V45.45h67.447v16.655c0,4.642,3.764,8.405,8.407,8.405
		c4.641,0,8.404-3.763,8.404-8.405V45.45h47.38v47.763H31.089V45.45H76.464z M31.089,239.275V110.023h193.824v129.252H31.089z"/>
	<path d="M129.771,160.971c-5.675,0-9.659,1.207-13.522,3.019l0.724-12.797h38.028v-19.315H98.503l-2.415,42.735l13.883,7.847
		c3.984-2.415,8.331-4.225,13.521-4.225c7.365,0,12.434,3.622,12.434,9.778v0.242c0,6.036-4.587,9.898-12.313,9.898
		c-7.243,0-13.762-3.38-20.523-9.174l-13.4,15.693c8.813,8.209,19.195,13.4,34.164,13.4c20.522,0,34.889-11.348,34.889-30.06v-0.242
		C158.743,169.421,144.981,160.971,129.771,160.971z"/>
</g>
</svg>
